ISO-10303-21;
HEADER;
FILE_DESCRIPTION(('ViewDefinition[DesignTransferView]'),'2;1');
FILE_NAME('carport.ifc','2026-03-02T12:47:47+01:00',(''),(''),'IfcOpenShell 0.8.4','Bonsai 0.8.4','Nobody');
FILE_SCHEMA(('IFC4'));
ENDSEC;
DATA;
#1=IFCPROJECT('32TlEmFGL5tBcagMd61JUb',$,'My Project',$,$,$,$,(#14,#26),#9);
#2=IFCSIUNIT(*,.LENGTHUNIT.,.MILLI.,.METRE.);
#3=IFCSIUNIT(*,.AREAUNIT.,$,.SQUARE_METRE.);
#4=IFCSIUNIT(*,.VOLUMEUNIT.,$,.CUBIC_METRE.);
#5=IFCDIMENSIONALEXPONENTS(0,0,0,0,0,0,0);
#6=IFCSIUNIT(*,.PLANEANGLEUNIT.,$,.RADIAN.);
#7=IFCMEASUREWITHUNIT(IFCREAL(0.0174532925199433),#6);
#8=IFCCONVERSIONBASEDUNIT(#5,.PLANEANGLEUNIT.,'degree',#7);
#9=IFCUNITASSIGNMENT((#4,#2,#8,#3));
#10=IFCCARTESIANPOINT((0.,0.,0.));
#11=IFCDIRECTION((0.,0.,1.));
#12=IFCDIRECTION((1.,0.,0.));
#13=IFCAXIS2PLACEMENT3D(#10,#11,#12);
#14=IFCGEOMETRICREPRESENTATIONCONTEXT($,'Model',3,1.E-05,#13,$);
#15=IFCGEOMETRICREPRESENTATIONSUBCONTEXT('Body','Model',*,*,*,*,#14,$,.MODEL_VIEW.,$);
#16=IFCGEOMETRICREPRESENTATIONSUBCONTEXT('Axis','Model',*,*,*,*,#14,$,.GRAPH_VIEW.,$);
#17=IFCGEOMETRICREPRESENTATIONSUBCONTEXT('Box','Model',*,*,*,*,#14,$,.MODEL_VIEW.,$);
#18=IFCGEOMETRICREPRESENTATIONSUBCONTEXT('Annotation','Model',*,*,*,*,#14,$,.SECTION_VIEW.,$);
#19=IFCGEOMETRICREPRESENTATIONSUBCONTEXT('Annotation','Model',*,*,*,*,#14,$,.ELEVATION_VIEW.,$);
#20=IFCGEOMETRICREPRESENTATIONSUBCONTEXT('Annotation','Model',*,*,*,*,#14,$,.MODEL_VIEW.,$);
#21=IFCGEOMETRICREPRESENTATIONSUBCONTEXT('Annotation','Model',*,*,*,*,#14,$,.PLAN_VIEW.,$);
#22=IFCGEOMETRICREPRESENTATIONSUBCONTEXT('Profile','Model',*,*,*,*,#14,$,.ELEVATION_VIEW.,$);
#23=IFCCARTESIANPOINT((0.,0.));
#24=IFCDIRECTION((1.,0.));
#25=IFCAXIS2PLACEMENT2D(#23,#24);
#26=IFCGEOMETRICREPRESENTATIONCONTEXT($,'Plan',2,1.E-05,#25,$);
#27=IFCGEOMETRICREPRESENTATIONSUBCONTEXT('Axis','Plan',*,*,*,*,#26,$,.GRAPH_VIEW.,$);
#28=IFCGEOMETRICREPRESENTATIONSUBCONTEXT('Body','Plan',*,*,*,*,#26,$,.PLAN_VIEW.,$);
#29=IFCGEOMETRICREPRESENTATIONSUBCONTEXT('Annotation','Plan',*,*,*,*,#26,$,.PLAN_VIEW.,$);
#30=IFCGEOMETRICREPRESENTATIONSUBCONTEXT('Annotation','Plan',*,*,*,*,#26,$,.REFLECTED_PLAN_VIEW.,$);
#31=IFCSITE('04dbsXLV5F$wPtTrt1nTWv',$,'My Site',$,$,#54,$,$,$,$,$,$,$,$);
#37=IFCBUILDING('0cNmaETdX3JRKPumTxcOQR',$,'My Building',$,$,#60,$,$,$,$,$,$);
#43=IFCBUILDINGSTOREY('0bCaJthqr6D83ITz$R8pqe',$,'My Storey',$,$,#66,$,$,$,$);
#49=IFCRELAGGREGATES('2kP$iTlu1FbRZ1hme_IMaZ',$,$,$,#1,(#31));
#50=IFCCARTESIANPOINT((0.,0.,0.));
#51=IFCDIRECTION((0.,0.,1.));
#52=IFCDIRECTION((1.,0.,0.));
#53=IFCAXIS2PLACEMENT3D(#50,#51,#52);
#54=IFCLOCALPLACEMENT($,#53);
#55=IFCRELAGGREGATES('18Jq1Vco9C3h1cb633JFSV',$,$,$,#31,(#37));
#56=IFCCARTESIANPOINT((0.,0.,0.));
#57=IFCDIRECTION((0.,0.,1.));
#58=IFCDIRECTION((1.,0.,0.));
#59=IFCAXIS2PLACEMENT3D(#56,#57,#58);
#60=IFCLOCALPLACEMENT(#54,#59);
#61=IFCRELAGGREGATES('1SMjzVgvL0jRvYA5GyHhvq',$,$,$,#37,(#43));
#62=IFCCARTESIANPOINT((0.,0.,0.));
#63=IFCDIRECTION((0.,0.,1.));
#64=IFCDIRECTION((1.,0.,0.));
#65=IFCAXIS2PLACEMENT3D(#62,#63,#64);
#66=IFCLOCALPLACEMENT(#60,#65);
#67=IFCWALLTYPE('0TgFbKdGLC7AY0isQZ6ut0',$,'Unnamed',$,$,(#72),$,$,$,.SOLIDWALL.);
#68=IFCMATERIAL('Unknown',$,$);
#69=IFCMATERIALLAYERSET((#71),$,$);
#70=IFCRELASSOCIATESMATERIAL('2ucXBpfu55TwTH_u$REVIE',$,$,$,(#67),#69);
#71=IFCMATERIALLAYER(#68,100.,$,$,$,$,$);
#72=IFCPROPERTYSET('1JPdyLqLL3eR4QWzOsre9c',$,'EPset_Parametric',$,(#73));
#73=IFCPROPERTYSINGLEVALUE('LayerSetDirection',$,IFCLABEL('AXIS2'),$);
#251=IFCROOFTYPE('3BU3Zz5KTF3P4SZYWIbFGK',$,'Unnamed',$,$,(#252),(#281,#309),$,$,.HIP_ROOF.);
#252=IFCPROPERTYSET('2hgGvBHHL5FA84A_CA9_DK',$,'BBIM_Roof',$,(#253));
#253=IFCPROPERTYSINGLEVALUE('Data',$,IFCTEXT('{"roof_type": "HIP/GABLE ROOF", "generation_method": "ANGLE", "roof_thickness": 100.00000149011612, "rafter_edge_angle": 1.5707963705062866, "angle": 0.1745329201221466, "percentage": 17.63269805908203, "path_data": {"edges": [[0, 1], [1, 2], [2, 3], [3, 0]], "verts": [[-4999.99951171875, -4999.99951171875, 0.0], [-4999.99951171875, 4999.99951171875, 0.0], [4999.99951171875, 4999.99951171875, 0.0], [4999.99951171875, -4999.99951171875, 0.0]]}}'),$);
#277=IFCCARTESIANPOINT((0.,0.,0.));
#278=IFCDIRECTION((1.,0.,0.));
#279=IFCDIRECTION((0.,0.,1.));
#280=IFCAXIS2PLACEMENT3D(#277,#279,#278);
#281=IFCREPRESENTATIONMAP(#280,#300);
#282=IFCINDEXEDPOLYGONALFACE((3,1,2));
#283=IFCINDEXEDPOLYGONALFACE((2,4,3));
#284=IFCINDEXEDPOLYGONALFACE((1,3,5));
#285=IFCINDEXEDPOLYGONALFACE((4,5,3));
#286=IFCINDEXEDPOLYGONALFACE((6,7,8));
#287=IFCINDEXEDPOLYGONALFACE((8,2,1));
#288=IFCINDEXEDPOLYGONALFACE((8,1,6));
#289=IFCINDEXEDPOLYGONALFACE((8,7,9));
#290=IFCINDEXEDPOLYGONALFACE((2,8,9));
#291=IFCINDEXEDPOLYGONALFACE((2,9,4));
#292=IFCINDEXEDPOLYGONALFACE((10,7,6));
#293=IFCINDEXEDPOLYGONALFACE((6,1,5));
#294=IFCINDEXEDPOLYGONALFACE((6,5,10));
#295=IFCINDEXEDPOLYGONALFACE((9,7,10));
#296=IFCINDEXEDPOLYGONALFACE((4,9,10));
#297=IFCINDEXEDPOLYGONALFACE((4,10,5));
#298=IFCCARTESIANPOINTLIST3D(((-4999.99951171875,-4999.99951171875,0.),(4999.99951171875,-4999.99951171875,0.),(0.,0.,881.634704589844),(4999.99951171875,4999.99951171875,0.),(-4999.99951171875,4999.99951171875,0.),(-4999.99951171875,-4999.99951171875,-101.542655944824),(0.,0.,780.092163085938),(4999.99951171875,-4999.99951171875,-101.542655944824),(4999.99951171875,4999.99951171875,-101.542655944824),(-4999.99951171875,4999.99951171875,-101.542655944824)));
#299=IFCPOLYGONALFACESET(#298,.T.,(#282,#283,#284,#285,#286,#287,#288,#289,#290,#291,#292,#293,#294,#295,#296,#297),$);
#300=IFCSHAPEREPRESENTATION(#15,'Body','Tessellation',(#299));
#302=IFCCARTESIANPOINT((-4999.99952316284,-4999.99952316284,-101.54265910387));
#303=IFCBOUNDINGBOX(#302,9999.99904632568,9999.99904632568,983.177423477173);
#304=IFCSHAPEREPRESENTATION(#17,'Box','BoundingBox',(#303));
#305=IFCCARTESIANPOINT((0.,0.,0.));
#306=IFCDIRECTION((1.,0.,0.));
#307=IFCDIRECTION((0.,0.,1.));
#308=IFCAXIS2PLACEMENT3D(#305,#307,#306);
#309=IFCREPRESENTATIONMAP(#308,#304);
#332=IFCRAMPFLIGHTTYPE('08IDcv9Of1x9aM2voQTdAy',$,'Unnamed',$,$,(#336),$,$,$,.STRAIGHT.);
#333=IFCMATERIALLAYERSET((#335),$,$);
#334=IFCRELASSOCIATESMATERIAL('2JFCLRZAH8aPDwSORv8oh7',$,$,$,(#332),#333);
#335=IFCMATERIALLAYER(#68,100.,$,$,$,$,$);
#336=IFCPROPERTYSET('3Jc85GL8LEg8RG7LonW0Lh',$,'EPset_Parametric',$,(#337));
#337=IFCPROPERTYSINGLEVALUE('LayerSetDirection',$,IFCLABEL('AXIS3'),$);
#357=IFCCARTESIANPOINT((-0.,-0.,-100.));
#358=IFCDIRECTION((0.,0.,1.));
#359=IFCDIRECTION((1.,0.,0.));
#360=IFCAXIS2PLACEMENT3D(#357,#358,#359);
#361=IFCCARTESIANPOINT((-0.,-100.,-100.));
#362=IFCDIRECTION((0.,0.,1.));
#363=IFCDIRECTION((1.,0.,0.));
#364=IFCAXIS2PLACEMENT3D(#361,#362,#363);
#365=IFCCARTESIANPOINT((-0.,-0.,-100.));
#366=IFCDIRECTION((0.,0.,1.));
#367=IFCDIRECTION((1.,0.,0.));
#368=IFCAXIS2PLACEMENT3D(#365,#366,#367);
#369=IFCCARTESIANPOINT((-0.,-9.08311653137207,-100.));
#370=IFCDIRECTION((0.,0.,1.));
#371=IFCDIRECTION((1.,0.,0.));
#372=IFCAXIS2PLACEMENT3D(#369,#370,#371);
#373=IFCCARTESIANPOINT((-0.,-33.7120208740234,-100.));
#374=IFCDIRECTION((0.,0.,1.));
#375=IFCDIRECTION((1.,0.,0.));
#376=IFCAXIS2PLACEMENT3D(#373,#374,#375);
#377=IFCCARTESIANPOINT((-0.,-57.9446601867676,-100.));
#378=IFCDIRECTION((0.,0.,1.));
#379=IFCDIRECTION((1.,0.,0.));
#380=IFCAXIS2PLACEMENT3D(#377,#378,#379);
#381=IFCCARTESIANPOINT((-0.,-117.832550048828,-100.));
#382=IFCDIRECTION((0.,0.,1.));
#383=IFCDIRECTION((1.,0.,0.));
#384=IFCAXIS2PLACEMENT3D(#381,#382,#383);
#385=IFCCARTESIANPOINT((-0.,-237.890670776367,-100.000007629395));
#386=IFCDIRECTION((0.,0.,1.));
#387=IFCDIRECTION((1.,0.,0.));
#388=IFCAXIS2PLACEMENT3D(#385,#386,#387);
#389=IFCCARTESIANPOINT((-0.,-318.515655517578,100.));
#390=IFCDIRECTION((0.,0.,1.));
#391=IFCDIRECTION((1.,0.,0.));
#392=IFCAXIS2PLACEMENT3D(#389,#390,#391);
#393=IFCCARTESIANPOINT((-0.,-90.0403671264648,99.9999923706055));
#394=IFCDIRECTION((0.,0.,1.));
#395=IFCDIRECTION((1.,0.,0.));
#396=IFCAXIS2PLACEMENT3D(#393,#394,#395);
#397=IFCCARTESIANPOINT((-0.,-15.1949586868286,100.));
#398=IFCDIRECTION((0.,0.,1.));
#399=IFCDIRECTION((1.,0.,0.));
#400=IFCAXIS2PLACEMENT3D(#397,#398,#399);
#401=IFCCARTESIANPOINT((-0.,-0.,-100.));
#402=IFCDIRECTION((0.,0.,1.));
#403=IFCDIRECTION((1.,0.,0.));
#404=IFCAXIS2PLACEMENT3D(#401,#402,#403);
#405=IFCCARTESIANPOINT((-0.,-12.2607345581055,100.));
#406=IFCDIRECTION((0.,0.,1.));
#407=IFCDIRECTION((1.,0.,0.));
#408=IFCAXIS2PLACEMENT3D(#405,#406,#407);
#409=IFCCARTESIANPOINT((-0.,-28.9959201812744,100.));
#410=IFCDIRECTION((0.,0.,1.));
#411=IFCDIRECTION((1.,0.,0.));
#412=IFCAXIS2PLACEMENT3D(#409,#410,#411);
#413=IFCCARTESIANPOINT((-0.,212.510498046875,100.));
#414=IFCDIRECTION((0.,0.,1.));
#415=IFCDIRECTION((1.,0.,0.));
#416=IFCAXIS2PLACEMENT3D(#413,#414,#415);
#417=IFCCARTESIANPOINT((-0.,-8.742277714191E-06,100.));
#418=IFCDIRECTION((0.,0.,1.));
#419=IFCDIRECTION((1.,0.,0.));
#420=IFCAXIS2PLACEMENT3D(#417,#418,#419);
#421=IFCCARTESIANPOINT((-0.,705.283630371094,100.));
#422=IFCDIRECTION((0.,0.,1.));
#423=IFCDIRECTION((1.,0.,0.));
#424=IFCAXIS2PLACEMENT3D(#421,#422,#423);
#425=IFCCARTESIANPOINT((-0.,111.061264038086,-100.));
#426=IFCDIRECTION((0.,0.,1.));
#427=IFCDIRECTION((1.,0.,0.));
#428=IFCAXIS2PLACEMENT3D(#425,#426,#427);
#429=IFCCARTESIANPOINT((-0.,100.104782104492,-99.9999923706055));
#430=IFCDIRECTION((0.,0.,1.));
#431=IFCDIRECTION((1.,0.,0.));
#432=IFCAXIS2PLACEMENT3D(#429,#430,#431);
#433=IFCCARTESIANPOINT((-0.,1323.78015136719,-100.000007629395));
#434=IFCDIRECTION((0.,0.,1.));
#435=IFCDIRECTION((1.,0.,0.));
#436=IFCAXIS2PLACEMENT3D(#433,#434,#435);
#437=IFCCARTESIANPOINT((-0.,4243.3740234375,-100.));
#438=IFCDIRECTION((0.,0.,1.));
#439=IFCDIRECTION((1.,0.,0.));
#440=IFCAXIS2PLACEMENT3D(#437,#438,#439);
#442=IFCRELCONTAINEDINSPATIALSTRUCTURE('2HX90QABT5JRpjEI9SirRZ',$,$,$,(#477,#508,#565,#917,#957,#1200,#1227,#1304,#1346),#43);
#471=IFCSLABTYPE('3zURd6TW12m810VZo12mfE',$,'Unnamed',$,$,(#475),$,$,$,.FLOOR.);
#472=IFCMATERIALLAYERSET((#474),$,$);
#473=IFCRELASSOCIATESMATERIAL('2zpeBPoqLD3vBDJaTW1yNy',$,$,$,(#471),#472);
#474=IFCMATERIALLAYER(#68,100.,$,$,$,$,$);
#475=IFCPROPERTYSET('0gnwg02Uf2_OtRApxbG7xL',$,'EPset_Parametric',$,(#476));
#476=IFCPROPERTYSINGLEVALUE('LayerSetDirection',$,IFCLABEL('AXIS3'),$);
#477=IFCSLAB('1co9hJwvHDduPYYATUjQnR',$,'Slab',$,$,#1433,#492,$,$);
#478=IFCRELDEFINESBYTYPE('2h$4Ld_v9Fuegiz3lEaq98',$,$,$,(#477,#565,#957),#471);
#479=IFCMATERIALLAYERSETUSAGE(#472,.AXIS3.,.POSITIVE.,-100.,$);
#480=IFCRELASSOCIATESMATERIAL('2aHM5sZSrFdRdS32AqKLZ5',$,$,$,(#477),#479);
#488=IFCDIRECTION((0.,0.,1.));
#490=IFCEXTRUDEDAREASOLID(#1197,#499,#488,100.);
#491=IFCSHAPEREPRESENTATION(#15,'Body','SweptSolid',(#490,#556));
#492=IFCPRODUCTDEFINITIONSHAPE($,$,(#491));
#493=IFCPROPERTYSET('0aDytoLez4JOVjU89GCWb3',$,'EPset_Parametric',$,(#495));
#494=IFCRELDEFINESBYPROPERTIES('0X9ZJ2xHD7teRxUVzW85gH',$,$,$,(#477),#493);
#495=IFCPROPERTYSINGLEVALUE('Engine',$,IFCLABEL('Bonsai.DumbLayer3'),$);
#496=IFCCARTESIANPOINT((-0.,-0.,-100.));
#497=IFCDIRECTION((0.,0.,1.));
#498=IFCDIRECTION((1.,0.,0.));
#499=IFCAXIS2PLACEMENT3D(#496,#497,#498);
#503=IFCCOLUMNTYPE('1YFfMp6wXBMhSp6wHukkCw',$,'Unnamed',$,$,$,$,$,$,.COLUMN.);
#505=IFCMATERIALPROFILESET($,$,(#507),$);
#506=IFCRELASSOCIATESMATERIAL('16P9DNLxL1wx1H0fPrS2u$',$,$,$,(#503),#505);
#507=IFCMATERIALPROFILE($,$,#68,#946,$,$);
#508=IFCCOLUMN('2PmEQdck52bvySg3FYKLjC',$,'Column',$,$,#652,#520,$,$);
#509=IFCRELDEFINESBYTYPE('154FD60559ZAE1KtVteABQ',$,$,$,(#508,#917,#1200,#1227,#1304,#1346),#503);
#510=IFCMATERIALPROFILESETUSAGE(#505,5,$);
#511=IFCRELASSOCIATESMATERIAL('2nW0E9Zoj9efqsNWA1NWKA',$,$,$,(#508),#510);
#520=IFCPRODUCTDEFINITIONSHAPE($,$,(#640,#647));
#528=IFCPROPERTYSET('29fn8WZTv7CByC5n73X1X0',$,'EPset_Parametric',$,(#530));
#529=IFCRELDEFINESBYPROPERTIES('1Gyzed2ofF5BpwuOPp_Yag',$,$,$,(#508),#528);
#530=IFCPROPERTYSINGLEVALUE('Engine',$,IFCLABEL('Bonsai.DumbProfile'),$);
#556=IFCEXTRUDEDAREASOLID(#557,#560,#564,100.);
#557=IFCARBITRARYCLOSEDPROFILEDEF(.AREA.,$,#558);
#558=IFCINDEXEDPOLYCURVE(#559,$,$);
#559=IFCCARTESIANPOINTLIST2D(((0.,3199.99975585938),(0.,0.),(3199.99975585938,0.),(3199.99975585938,3199.99975585938),(0.,3199.99975585938)));
#560=IFCAXIS2PLACEMENT3D(#561,#562,#563);
#561=IFCCARTESIANPOINT((-0.,-0.,-100.));
#562=IFCDIRECTION((0.,0.,1.));
#563=IFCDIRECTION((1.,0.,0.));
#564=IFCDIRECTION((0.,0.,1.));
#565=IFCSLAB('3r8t7_hzfBkQX3zy59UGk4',$,'Slab',$,$,#669,#576,$,$);
#571=IFCRELASSOCIATESMATERIAL('2Tz0wPdEbCI8BKxNs55pty',$,$,$,(#565),#572);
#572=IFCMATERIALLAYERSETUSAGE(#472,.AXIS3.,.POSITIVE.,-100.,$);
#573=IFCRELDEFINESBYPROPERTIES('2ohxXQnRH36wIXU9pvR5O$',$,$,$,(#565),#574);
#574=IFCPROPERTYSET('0rrVekJBn8oQl1_SFP9kY6',$,'EPset_Parametric',$,(#575));
#575=IFCPROPERTYSINGLEVALUE('Engine',$,IFCLABEL('Bonsai.DumbLayer3'),$);
#576=IFCPRODUCTDEFINITIONSHAPE($,$,(#577));
#577=IFCSHAPEREPRESENTATION(#15,'Body','SweptSolid',(#578,#587));
#578=IFCEXTRUDEDAREASOLID(#606,#664,#586,100.38198373204);
#582=IFCAXIS2PLACEMENT3D(#583,#584,#585);
#583=IFCCARTESIANPOINT((-0.,-0.,-100.));
#584=IFCDIRECTION((0.,0.,1.));
#585=IFCDIRECTION((1.,0.,0.));
#586=IFCDIRECTION((0.,-0.0871557369828224,0.99619472026825));
#587=IFCEXTRUDEDAREASOLID(#609,#591,#595,100.);
#591=IFCAXIS2PLACEMENT3D(#592,#593,#594);
#592=IFCCARTESIANPOINT((-0.,-0.,-100.));
#593=IFCDIRECTION((0.,0.,1.));
#594=IFCDIRECTION((1.,0.,0.));
#595=IFCDIRECTION((0.,0.,1.));
#604=IFCCARTESIANPOINTLIST2D(((0.,3212.22281238819),(0.,0.),(3199.99926757812,0.),(3199.99926757812,3212.22281238819),(0.,3212.22281238819)));
#605=IFCINDEXEDPOLYCURVE(#604,$,$);
#606=IFCARBITRARYCLOSEDPROFILEDEF(.AREA.,$,#605);
#607=IFCCARTESIANPOINTLIST2D(((3199.99951171875,3199.99951171875),(3199.99951171875,0.),(0.,0.),(0.,3199.99951171875),(3199.99951171875,3199.99951171875)));
#608=IFCINDEXEDPOLYCURVE(#607,$,$);
#609=IFCARBITRARYCLOSEDPROFILEDEF(.AREA.,$,#608);
#638=IFCCARTESIANPOINTLIST3D(((0.,0.,0.),(0.,0.,2700.)));
#639=IFCINDEXEDPOLYCURVE(#638,$,.F.);
#640=IFCSHAPEREPRESENTATION(#16,'Axis','Curve3D',(#639));
#641=IFCCARTESIANPOINT((0.,0.,0.));
#642=IFCDIRECTION((0.,0.,1.));
#643=IFCDIRECTION((1.,0.,0.));
#644=IFCAXIS2PLACEMENT3D(#641,#642,#643);
#645=IFCDIRECTION((0.,0.,1.));
#646=IFCEXTRUDEDAREASOLID(#946,#644,#645,2700.00008123892);
#647=IFCSHAPEREPRESENTATION(#15,'Body','SweptSolid',(#646));
#648=IFCCARTESIANPOINT((1066.12253189087,-929.760456085205,0.));
#649=IFCDIRECTION((0.,0.,1.));
#650=IFCDIRECTION((1.,0.,0.));
#651=IFCAXIS2PLACEMENT3D(#648,#649,#650);
#652=IFCLOCALPLACEMENT(#66,#651);
#653=IFCCARTESIANPOINT((-0.,-26.7949199676514,-100.));
#654=IFCDIRECTION((0.,0.,1.));
#655=IFCDIRECTION((1.,0.,0.));
#656=IFCAXIS2PLACEMENT3D(#653,#654,#655);
#657=IFCCARTESIANPOINT((-0.,17.632698059082,-100.));
#658=IFCDIRECTION((0.,0.,1.));
#659=IFCDIRECTION((1.,0.,0.));
#660=IFCAXIS2PLACEMENT3D(#657,#658,#659);
#661=IFCCARTESIANPOINT((-0.,8.74886512756348,-100.));
#662=IFCDIRECTION((0.,0.,1.));
#663=IFCDIRECTION((1.,0.,0.));
#664=IFCAXIS2PLACEMENT3D(#661,#662,#663);
#665=IFCCARTESIANPOINT((-1993.8770532608,-929.760456085205,2780.72595596313));
#666=IFCDIRECTION((0.,0.0871557146310806,0.99619472026825));
#667=IFCDIRECTION((1.,0.,0.));
#668=IFCAXIS2PLACEMENT3D(#665,#666,#667);
#669=IFCLOCALPLACEMENT(#66,#668);
#742=IFCCARTESIANPOINTLIST3D(((24999.84765625,0.,0.),(-24999.84765625,0.,0.)));
#743=IFCINDEXEDPOLYCURVE(#742,$,$);
#744=IFCSHAPEREPRESENTATION(#19,'Annotation','Curve3D',(#743));
#746=IFCRELASSIGNSTOPRODUCT('2$$0W37VL33v5O0szThfAt',$,$,$,(#799,#1497),$,#43);
#762=IFCANNOTATION('10LAfgXMPDJRnjRtcWpBg_',$,'EAST ELEVATION',$,'DRAWING',#1402,#773);
#773=IFCPRODUCTDEFINITIONSHAPE($,$,(#1923));
#774=IFCGROUP('1EMjZ_Ptv0s9WBSJrrnUu5',$,'EAST ELEVATION',$,'DRAWING');
#775=IFCRELASSIGNSTOGROUP('20WivUsWbFKg8Q9UAOPJxM',$,$,$,(#1135,#1383,#1833,#1756,#799,#1890,#1416,#762),$,#774);
#776=IFCPROPERTYSET('3DiH0Gxj5FXx9M96CNN1Ff',$,'EPset_Drawing',$,(#778,#779,#780,#781,#782,#783,#784,#785,#786,#787,#788,#789,#790));
#777=IFCRELDEFINESBYPROPERTIES('2yNZEMtkX6Q8_t3fp2_xKr',$,$,$,(#762),#776);
#778=IFCPROPERTYSINGLEVALUE('TargetView',$,IFCLABEL('ELEVATION_VIEW'),$);
#779=IFCPROPERTYSINGLEVALUE('Scale',$,IFCLABEL('1/50'),$);
#780=IFCPROPERTYSINGLEVALUE('HumanScale',$,IFCLABEL('1:50'),$);
#781=IFCPROPERTYSINGLEVALUE('HasUnderlay',$,IFCBOOLEAN(.F.),$);
#782=IFCPROPERTYSINGLEVALUE('HasLinework',$,IFCBOOLEAN(.T.),$);
#783=IFCPROPERTYSINGLEVALUE('HasAnnotation',$,IFCBOOLEAN(.T.),$);
#784=IFCPROPERTYSINGLEVALUE('GlobalReferencing',$,IFCBOOLEAN(.T.),$);
#785=IFCPROPERTYSINGLEVALUE('Stylesheet',$,IFCTEXT('drawings/assets/default.css'),$);
#786=IFCPROPERTYSINGLEVALUE('Markers',$,IFCTEXT('drawings/assets/markers.svg'),$);
#787=IFCPROPERTYSINGLEVALUE('Symbols',$,IFCTEXT('drawings/assets/symbols.svg'),$);
#788=IFCPROPERTYSINGLEVALUE('Patterns',$,IFCTEXT('drawings/assets/patterns.svg'),$);
#789=IFCPROPERTYSINGLEVALUE('ShadingStyles',$,IFCTEXT('drawings/assets/shading_styles.json'),$);
#790=IFCPROPERTYSINGLEVALUE('CurrentShadingStyle',$,IFCLABEL('Blender Default'),$);
#791=IFCDOCUMENTINFORMATION('X','EAST ELEVATION',$,$,$,$,'DRAWING',$,$,$,$,$,$,$,$,$,$);
#792=IFCRELASSOCIATESDOCUMENT('3$4Hdgl$bBEP57wTtjMXAn',$,$,$,(#1),#791);
#793=IFCDOCUMENTREFERENCE('drawings/EAST ELEVATION.svg','X',$,$,#791);
#794=IFCRELASSOCIATESDOCUMENT('0jNeSwZEL2PBvMMTPhtuV3',$,$,$,(#762),#793);
#796=IFCRELASSIGNSTOPRODUCT('3AV00_TqLAqxHRQGM9P2Vd',$,$,$,(#1496,#1642),$,#762);
#799=IFCANNOTATION('3D2jaeBsz0SRDsrS0WTJKH',$,'My Storey',$,'SECTION_LEVEL',#1411,#1406);
#805=IFCCARTESIANPOINTLIST3D(((24999.84765625,0.,0.),(-24999.84765625,0.,0.)));
#806=IFCINDEXEDPOLYCURVE(#805,$,$);
#807=IFCSHAPEREPRESENTATION(#19,'Annotation','Curve3D',(#806));
#859=IFCANNOTATION('2chFRZRqPARBZ0$MrnZxNj',$,'PERSPECTIVE',$,'DRAWING',#864,#875);
#860=IFCCARTESIANPOINT((7989.26639556885,-12473.2704162598,10203.2127380371));
#861=IFCDIRECTION((0.444179743528366,-0.693477272987366,0.567268669605255));
#862=IFCDIRECTION((0.842076003551483,0.539358973503113,1.19209282445354E-07));
#863=IFCAXIS2PLACEMENT3D(#860,#861,#862);
#864=IFCLOCALPLACEMENT($,#863);
#875=IFCPRODUCTDEFINITIONSHAPE($,$,(#916));
#876=IFCGROUP('2llkNfrMTAlR8RfurKOZZp',$,'PERSPECTIVE',$,'DRAWING');
#877=IFCRELASSIGNSTOGROUP('20cX4BqUfFdergsmZ_C6WQ',$,$,$,(#859),$,#876);
#878=IFCPROPERTYSET('0PNAOxQvPB5fpRs0X9zvt1',$,'EPset_Drawing',$,(#880,#881,#882,#883,#884,#885,#886,#887,#888,#889,#890,#891,#892));
#879=IFCRELDEFINESBYPROPERTIES('1xgUehGjP1ifsPginS5SkB',$,$,$,(#859),#878);
#880=IFCPROPERTYSINGLEVALUE('TargetView',$,IFCLABEL('MODEL_VIEW'),$);
#881=IFCPROPERTYSINGLEVALUE('Scale',$,IFCLABEL('1/100'),$);
#882=IFCPROPERTYSINGLEVALUE('HumanScale',$,IFCLABEL('1:100'),$);
#883=IFCPROPERTYSINGLEVALUE('HasUnderlay',$,IFCBOOLEAN(.F.),$);
#884=IFCPROPERTYSINGLEVALUE('HasLinework',$,IFCBOOLEAN(.T.),$);
#885=IFCPROPERTYSINGLEVALUE('HasAnnotation',$,IFCBOOLEAN(.T.),$);
#886=IFCPROPERTYSINGLEVALUE('GlobalReferencing',$,IFCBOOLEAN(.T.),$);
#887=IFCPROPERTYSINGLEVALUE('Stylesheet',$,IFCTEXT('drawings/assets/default.css'),$);
#888=IFCPROPERTYSINGLEVALUE('Markers',$,IFCTEXT('drawings/assets/markers.svg'),$);
#889=IFCPROPERTYSINGLEVALUE('Symbols',$,IFCTEXT('drawings/assets/symbols.svg'),$);
#890=IFCPROPERTYSINGLEVALUE('Patterns',$,IFCTEXT('drawings/assets/patterns.svg'),$);
#891=IFCPROPERTYSINGLEVALUE('ShadingStyles',$,IFCTEXT('drawings/assets/shading_styles.json'),$);
#892=IFCPROPERTYSINGLEVALUE('CurrentShadingStyle',$,IFCLABEL('Blender Default'),$);
#893=IFCDOCUMENTINFORMATION('X','PERSPECTIVE',$,$,$,$,'DRAWING',$,$,$,$,$,$,$,$,$,$);
#894=IFCRELASSOCIATESDOCUMENT('2bWoEJTNT7rQe40yftyWhM',$,$,$,(#1),#893);
#895=IFCDOCUMENTREFERENCE('drawings/PERSPECTIVE.svg','X',$,$,#893);
#896=IFCRELASSOCIATESDOCUMENT('3zuJsiykjD6vUsYXSh_X_o',$,$,$,(#859),#895);
#907=IFCCARTESIANPOINT((-360000.025893221,-360000.025893221,-1000000.));
#908=IFCAXIS2PLACEMENT3D(#907,$,$);
#909=IFCRECTANGULARPYRAMID(#908,720000.051786442,720000.051786442,1000000.);
#910=IFCCARTESIANPOINT((0.,0.,-2.0000000949949));
#911=IFCAXIS2PLACEMENT3D(#910,$,$);
#912=IFCPLANE(#911);
#913=IFCHALFSPACESOLID(#912,.F.);
#914=IFCBOOLEANRESULT(.DIFFERENCE.,#909,#913);
#915=IFCCSGSOLID(#914);
#916=IFCSHAPEREPRESENTATION(#15,'Body','CSG',(#915));
#917=IFCCOLUMN('2wPjH6EEr6QAILrLY6_5Ex',$,'Column',$,$,#943,#928,$,$);
#923=IFCRELDEFINESBYPROPERTIES('28Inr_98PB5PXSuxVWVpuU',$,$,$,(#917),#924);
#924=IFCPROPERTYSET('3GiwBNjKX2HBdc$Qno5dOq',$,'EPset_Parametric',$,(#925));
#925=IFCPROPERTYSINGLEVALUE('Engine',$,IFCLABEL('Bonsai.DumbProfile'),$);
#926=IFCRELASSOCIATESMATERIAL('2BLckAS_zCEhm1emHtDbLL',$,$,$,(#917),#927);
#927=IFCMATERIALPROFILESETUSAGE(#505,5,$);
#928=IFCPRODUCTDEFINITIONSHAPE($,$,(#949,#956));
#939=IFCCARTESIANPOINT((1066.12253189087,2130.23948669434,0.));
#940=IFCDIRECTION((0.,0.,1.));
#941=IFCDIRECTION((1.,0.,0.));
#942=IFCAXIS2PLACEMENT3D(#939,#940,#941);
#943=IFCLOCALPLACEMENT(#66,#942);
#944=IFCCARTESIANPOINTLIST2D(((0.,0.),(139.999984741211,0.),(139.999984741211,139.999984741211),(0.,139.999984741211),(0.,0.)));
#945=IFCINDEXEDPOLYCURVE(#944,$,$);
#946=IFCARBITRARYCLOSEDPROFILEDEF(.AREA.,'New Profile',#945);
#947=IFCCARTESIANPOINTLIST3D(((0.,0.,0.),(0.,0.,2499.99975585938)));
#948=IFCINDEXEDPOLYCURVE(#947,$,.F.);
#949=IFCSHAPEREPRESENTATION(#16,'Axis','Curve3D',(#948));
#950=IFCCARTESIANPOINT((0.,0.,0.));
#951=IFCDIRECTION((0.,0.,1.));
#952=IFCDIRECTION((1.,0.,0.));
#953=IFCAXIS2PLACEMENT3D(#950,#951,#952);
#954=IFCDIRECTION((0.,0.,1.));
#955=IFCEXTRUDEDAREASOLID(#946,#953,#954,2500.);
#956=IFCSHAPEREPRESENTATION(#15,'Body','SweptSolid',(#955));
#957=IFCSLAB('2ZvrmDAlf25ucRsGVBAQcz',$,'Slab',$,$,#1981,#968,$,$);
#963=IFCRELASSOCIATESMATERIAL('0zo0$OHN17POTS_801JI4y',$,$,$,(#957),#964);
#964=IFCMATERIALLAYERSETUSAGE(#472,.AXIS3.,.POSITIVE.,-100.,$);
#965=IFCRELDEFINESBYPROPERTIES('2kZeb2zdnDgROH6jR2gU3D',$,$,$,(#957),#966);
#966=IFCPROPERTYSET('0XuSCO$tn3lOslKwlEpagU',$,'EPset_Parametric',$,(#967));
#967=IFCPROPERTYSINGLEVALUE('Engine',$,IFCLABEL('Bonsai.DumbLayer3'),$);
#968=IFCPRODUCTDEFINITIONSHAPE($,$,(#969));
#969=IFCSHAPEREPRESENTATION(#15,'Body','SweptSolid',(#979));
#979=IFCEXTRUDEDAREASOLID(#1997,#1991,#987,100.);
#987=IFCDIRECTION((0.,0.,1.));
#1007=IFCCARTESIANPOINTLIST3D(((8054.85009765625,-2999.99975585938,0.),(-8054.85009765625,-2999.99975585938,0.)));
#1008=IFCINDEXEDPOLYCURVE(#1007,$,$);
#1009=IFCSHAPEREPRESENTATION(#19,'Annotation','Curve3D',(#1008));
#1021=IFCCARTESIANPOINTLIST3D(((4724.6181640625,-1999.99987792969,0.),(-4724.6181640625,-1999.99987792969,0.)));
#1022=IFCINDEXEDPOLYCURVE(#1021,$,$);
#1023=IFCSHAPEREPRESENTATION(#19,'Annotation','Curve3D',(#1022));
#1113=IFCSHAPEREPRESENTATION(#19,'Annotation','Curve2D',(#1167));
#1135=IFCANNOTATION('2VHQTRe7r1cuudMd8Svf2a',$,'DIMENSION',$,'DIMENSION',#1140,#1145);
#1136=IFCCARTESIANPOINT((4388.21458816528,0.00023552634331736,-0.000238418579101562));
#1137=IFCDIRECTION((1.,0.,-2.22044604925031E-16));
#1138=IFCDIRECTION((-2.22044604925031E-16,1.,0.));
#1139=IFCAXIS2PLACEMENT3D(#1136,#1137,#1138);
#1140=IFCLOCALPLACEMENT($,#1139);
#1143=IFCGEOMETRICCURVESET((#1763));
#1144=IFCSHAPEREPRESENTATION(#19,'Annotation','GeometricSet',(#1143));
#1145=IFCPRODUCTDEFINITIONSHAPE($,$,(#1144));
#1166=IFCCARTESIANPOINTLIST2D(((4724.61767578125,-2000.00012207031),(-7635.46044921875,-2000.00012207031)));
#1167=IFCINDEXEDPOLYCURVE(#1166,$,$);
#1179=IFCSHAPEREPRESENTATION(#19,'Annotation','Curve2D',(#1194));
#1193=IFCCARTESIANPOINTLIST2D(((9437.8427734375,-2000.00012207031),(-4724.6171875,-2000.00012207031)));
#1194=IFCINDEXEDPOLYCURVE(#1193,$,$);
#1195=IFCCARTESIANPOINTLIST2D(((3199.99951171875,3199.99951171875),(3199.99951171875,0.),(0.,0.),(0.,3199.99951171875),(3199.99951171875,3199.99951171875)));
#1196=IFCINDEXEDPOLYCURVE(#1195,$,$);
#1197=IFCARBITRARYCLOSEDPROFILEDEF(.AREA.,$,#1196);
#1200=IFCCOLUMN('1IaBCiYrb5hem8F7KGDYwi',$,'Column',$,$,#1298,#1211,$,$);
#1206=IFCRELASSOCIATESMATERIAL('0NdzNIv897rQWrwDW7WoaU',$,$,$,(#1200),#1207);
#1207=IFCMATERIALPROFILESETUSAGE(#505,5,$);
#1208=IFCRELDEFINESBYPROPERTIES('2Vcc8pXcvBbwquAyopH1mc',$,$,$,(#1200),#1209);
#1209=IFCPROPERTYSET('2WA4rU5aHAZ8cD6XKijqAZ',$,'EPset_Parametric',$,(#1210));
#1210=IFCPROPERTYSINGLEVALUE('Engine',$,IFCLABEL('Bonsai.DumbProfile'),$);
#1211=IFCPRODUCTDEFINITIONSHAPE($,$,(#1286,#1293));
#1227=IFCCOLUMN('3HzmujBDD9WOXi4UclbLH5',$,'Column',$,$,#1303,#1238,$,$);
#1233=IFCRELASSOCIATESMATERIAL('1iefeI0Wz44flT06vKrXKb',$,$,$,(#1227),#1234);
#1234=IFCMATERIALPROFILESETUSAGE(#505,5,$);
#1235=IFCRELDEFINESBYPROPERTIES('2IzVcnEx1D_xumhSbwgicX',$,$,$,(#1227),#1236);
#1236=IFCPROPERTYSET('0eEj8ZrvjEOgRPoSdPCZSd',$,'EPset_Parametric',$,(#1237));
#1237=IFCPROPERTYSINGLEVALUE('Engine',$,IFCLABEL('Bonsai.DumbProfile'),$);
#1238=IFCPRODUCTDEFINITIONSHAPE($,$,(#1276,#1283));
#1274=IFCCARTESIANPOINTLIST3D(((0.,0.,0.),(0.,0.,3100.)));
#1275=IFCINDEXEDPOLYCURVE(#1274,$,.F.);
#1276=IFCSHAPEREPRESENTATION(#16,'Axis','Curve3D',(#1275));
#1277=IFCCARTESIANPOINT((0.,0.,0.));
#1278=IFCDIRECTION((0.,0.,1.));
#1279=IFCDIRECTION((1.,0.,0.));
#1280=IFCAXIS2PLACEMENT3D(#1277,#1278,#1279);
#1281=IFCDIRECTION((0.,0.,1.));
#1282=IFCEXTRUDEDAREASOLID(#946,#1280,#1281,3100.0000984438);
#1283=IFCSHAPEREPRESENTATION(#15,'Body','SweptSolid',(#1282));
#1284=IFCCARTESIANPOINTLIST3D(((0.,0.,0.),(0.,0.,3100.)));
#1285=IFCINDEXEDPOLYCURVE(#1284,$,.F.);
#1286=IFCSHAPEREPRESENTATION(#16,'Axis','Curve3D',(#1285));
#1287=IFCCARTESIANPOINT((0.,0.,0.));
#1288=IFCDIRECTION((0.,0.,1.));
#1289=IFCDIRECTION((1.,0.,0.));
#1290=IFCAXIS2PLACEMENT3D(#1287,#1288,#1289);
#1291=IFCDIRECTION((0.,0.,1.));
#1292=IFCEXTRUDEDAREASOLID(#946,#1290,#1291,3100.0000984438);
#1293=IFCSHAPEREPRESENTATION(#15,'Body','SweptSolid',(#1292));
#1294=IFCCARTESIANPOINT((1066.12253189087,-4981.4338684082,0.));
#1295=IFCDIRECTION((0.,0.,1.));
#1296=IFCDIRECTION((1.,0.,0.));
#1297=IFCAXIS2PLACEMENT3D(#1294,#1295,#1296);
#1298=IFCLOCALPLACEMENT(#66,#1297);
#1299=IFCCARTESIANPOINT((-1993.87693405151,-4981.4338684082,0.));
#1300=IFCDIRECTION((0.,0.,1.));
#1301=IFCDIRECTION((1.,0.,0.));
#1302=IFCAXIS2PLACEMENT3D(#1299,#1300,#1301);
#1303=IFCLOCALPLACEMENT(#66,#1302);
#1304=IFCCOLUMN('1VGk$Bxzz11QrUSt1HtHdm',$,'Column',$,$,#1377,#1315,$,$);
#1310=IFCRELASSOCIATESMATERIAL('0vmCkYukP7RAkDTaktDqeA',$,$,$,(#1304),#1311);
#1311=IFCMATERIALPROFILESETUSAGE(#505,5,$);
#1312=IFCRELDEFINESBYPROPERTIES('0tVQyB3XjE$AuoOtZBlIAW',$,$,$,(#1304),#1313);
#1313=IFCPROPERTYSET('1XhePpFRr0L8V8jKa3X8K3',$,'EPset_Parametric',$,(#1314));
#1314=IFCPROPERTYSINGLEVALUE('Engine',$,IFCLABEL('Bonsai.DumbProfile'),$);
#1315=IFCPRODUCTDEFINITIONSHAPE($,$,(#1328,#1335));
#1326=IFCCARTESIANPOINTLIST3D(((8.46987168188207E-05,0.,-1.40488782562898E-05),(0.000104560349427629,0.,4999.99951171875)));
#1327=IFCINDEXEDPOLYCURVE(#1326,$,.F.);
#1328=IFCSHAPEREPRESENTATION(#16,'Axis','Curve3D',(#1327));
#1329=IFCCARTESIANPOINT((0.,0.,0.));
#1330=IFCDIRECTION((0.,0.,1.));
#1331=IFCDIRECTION((1.,0.,0.));
#1332=IFCAXIS2PLACEMENT3D(#1329,#1330,#1331);
#1333=IFCDIRECTION((0.,0.,1.));
#1334=IFCEXTRUDEDAREASOLID(#946,#1332,#1333,5000.00000000001);
#1335=IFCSHAPEREPRESENTATION(#15,'Body','SweptSolid',(#1334));
#1346=IFCCOLUMN('3uAkQIczHAM8Tmc4oluX7f',$,'Column',$,$,#1382,#1357,$,$);
#1352=IFCRELDEFINESBYPROPERTIES('2YFrrSLFz94gU_WNb$RE25',$,$,$,(#1346),#1353);
#1353=IFCPROPERTYSET('0GtMgVHGv83fWGnz_DyyUa',$,'EPset_Parametric',$,(#1354));
#1354=IFCPROPERTYSINGLEVALUE('Engine',$,IFCLABEL('Bonsai.DumbProfile'),$);
#1355=IFCRELASSOCIATESMATERIAL('0Id5pnT7f388MDBTiYYIqx',$,$,$,(#1346),#1356);
#1356=IFCMATERIALPROFILESETUSAGE(#505,5,$);
#1357=IFCPRODUCTDEFINITIONSHAPE($,$,(#1358,#1361));
#1358=IFCSHAPEREPRESENTATION(#16,'Axis','Curve3D',(#1359));
#1359=IFCINDEXEDPOLYCURVE(#1360,$,.F.);
#1360=IFCCARTESIANPOINTLIST3D(((8.46987168188207E-05,0.,-1.40488782562898E-05),(0.000104560349427629,0.,4999.99951171875)));
#1361=IFCSHAPEREPRESENTATION(#15,'Body','SweptSolid',(#1362));
#1362=IFCEXTRUDEDAREASOLID(#946,#1363,#1367,5000.00000000001);
#1363=IFCAXIS2PLACEMENT3D(#1364,#1365,#1366);
#1364=IFCCARTESIANPOINT((0.,0.,0.));
#1365=IFCDIRECTION((0.,0.,1.));
#1366=IFCDIRECTION((1.,0.,0.));
#1367=IFCDIRECTION((0.,0.,1.));
#1373=IFCCARTESIANPOINT((-2395.09773254395,-4981.4338684082,3193.48502159119));
#1374=IFCDIRECTION((1.,0.,-4.37113882867379E-08));
#1375=IFCDIRECTION((-4.37113882867379E-08,0.,-1.));
#1376=IFCAXIS2PLACEMENT3D(#1373,#1374,#1375);
#1377=IFCLOCALPLACEMENT(#66,#1376);
#1378=IFCCARTESIANPOINT((-2395.09773254395,-929.761528968811,2805.39965629578));
#1379=IFCDIRECTION((1.,0.,-4.37113882867379E-08));
#1380=IFCDIRECTION((-4.37113882867379E-08,0.,-1.));
#1381=IFCAXIS2PLACEMENT3D(#1378,#1379,#1380);
#1382=IFCLOCALPLACEMENT(#66,#1381);
#1383=IFCANNOTATION('29$JYW9uP4HuAdXrYh8Ffy',$,'DIMENSION',$,'DIMENSION',#1438,#1393);
#1391=IFCGEOMETRICCURVESET((#1832));
#1392=IFCSHAPEREPRESENTATION(#19,'Annotation','GeometricSet',(#1391));
#1393=IFCPRODUCTDEFINITIONSHAPE($,$,(#1392));
#1398=IFCCARTESIANPOINT((5388.21458816528,-1397.72963523865,1983.42788219452));
#1399=IFCDIRECTION((1.,4.37113882867379E-08,-4.37113882867379E-08));
#1400=IFCDIRECTION((-4.37113882867379E-08,1.,0.));
#1401=IFCAXIS2PLACEMENT3D(#1398,#1399,#1400);
#1402=IFCLOCALPLACEMENT($,#1401);
#1405=IFCSHAPEREPRESENTATION(#19,'Annotation','Curve2D',(#2003));
#1406=IFCPRODUCTDEFINITIONSHAPE($,$,(#1405));
#1407=IFCCARTESIANPOINT((5336.21454238892,-1397.72963523865,1983.42788219452));
#1408=IFCDIRECTION((1.,0.,-2.22044604925031E-16));
#1409=IFCDIRECTION((-2.22044604925031E-16,1.,0.));
#1410=IFCAXIS2PLACEMENT3D(#1407,#1408,#1409);
#1411=IFCLOCALPLACEMENT($,#1410);
#1416=IFCANNOTATION('3dqUpgIRPAxgKJmhYLA1Q5',$,'DIMENSION',$,'DIMENSION',#1417,#1422);
#1417=IFCLOCALPLACEMENT($,#1418);
#1418=IFCAXIS2PLACEMENT3D(#1419,#1420,#1421);
#1419=IFCCARTESIANPOINT((4388.21458816528,0.000238418579101562,-0.000238418579101562));
#1420=IFCDIRECTION((1.,0.,-2.22044604925031E-16));
#1421=IFCDIRECTION((-2.22044604925031E-16,1.,0.));
#1422=IFCPRODUCTDEFINITIONSHAPE($,$,(#1423));
#1423=IFCSHAPEREPRESENTATION(#19,'Annotation','GeometricSet',(#1424));
#1424=IFCGEOMETRICCURVESET((#1765));
#1429=IFCCARTESIANPOINT((-1993.8770532608,-929.760336875916,113.668352365494));
#1430=IFCDIRECTION((0.,0.,1.));
#1431=IFCDIRECTION((1.,0.,0.));
#1432=IFCAXIS2PLACEMENT3D(#1429,#1430,#1431);
#1433=IFCLOCALPLACEMENT(#66,#1432);
#1434=IFCCARTESIANPOINT((4388.21506500244,-8385.23006439209,22.8063724935055));
#1435=IFCDIRECTION((1.,4.37113882867379E-08,-4.37113882867379E-08));
#1436=IFCDIRECTION((-4.37113882867379E-08,1.,0.));
#1437=IFCAXIS2PLACEMENT3D(#1434,#1435,#1436);
#1438=IFCLOCALPLACEMENT($,#1437);
#1449=IFCANNOTATION('33qUKga2rDKvMQK90gPsdJ',$,'SOUTH ELEVATION',$,'DRAWING',#1816,#1460);
#1460=IFCPRODUCTDEFINITIONSHAPE($,$,(#1830));
#1461=IFCGROUP('3RqvclXcj73PU9PSVkDcrY',$,'SOUTH ELEVATION',$,'DRAWING');
#1462=IFCRELASSIGNSTOGROUP('3q11zVIgXC$uGaJsM7zEla',$,$,$,(#1496,#1497,#1449,#1795,#1780),$,#1461);
#1463=IFCPROPERTYSET('2KK9cxGffF5B8Us5p5WUzF',$,'EPset_Drawing',$,(#1465,#1466,#1467,#1468,#1469,#1470,#1471,#1472,#1473,#1474,#1475,#1476,#1477));
#1464=IFCRELDEFINESBYPROPERTIES('2y2mv19VT4XwhL8eVDtS6q',$,$,$,(#1449),#1463);
#1465=IFCPROPERTYSINGLEVALUE('TargetView',$,IFCLABEL('ELEVATION_VIEW'),$);
#1466=IFCPROPERTYSINGLEVALUE('Scale',$,IFCLABEL('1/50'),$);
#1467=IFCPROPERTYSINGLEVALUE('HumanScale',$,IFCLABEL('1:50'),$);
#1468=IFCPROPERTYSINGLEVALUE('HasUnderlay',$,IFCBOOLEAN(.F.),$);
#1469=IFCPROPERTYSINGLEVALUE('HasLinework',$,IFCBOOLEAN(.T.),$);
#1470=IFCPROPERTYSINGLEVALUE('HasAnnotation',$,IFCBOOLEAN(.T.),$);
#1471=IFCPROPERTYSINGLEVALUE('GlobalReferencing',$,IFCBOOLEAN(.T.),$);
#1472=IFCPROPERTYSINGLEVALUE('Stylesheet',$,IFCTEXT('drawings/assets/default.css'),$);
#1473=IFCPROPERTYSINGLEVALUE('Markers',$,IFCTEXT('drawings/assets/markers.svg'),$);
#1474=IFCPROPERTYSINGLEVALUE('Symbols',$,IFCTEXT('drawings/assets/symbols.svg'),$);
#1475=IFCPROPERTYSINGLEVALUE('Patterns',$,IFCTEXT('drawings/assets/patterns.svg'),$);
#1476=IFCPROPERTYSINGLEVALUE('ShadingStyles',$,IFCTEXT('drawings/assets/shading_styles.json'),$);
#1477=IFCPROPERTYSINGLEVALUE('CurrentShadingStyle',$,IFCLABEL('Blender Default'),$);
#1478=IFCDOCUMENTINFORMATION('X','SOUTH ELEVATION',$,$,$,$,'DRAWING',$,$,$,$,$,$,$,$,$,$);
#1479=IFCRELASSOCIATESDOCUMENT('0wwZlfXyH7lOI4z$Ezskym',$,$,$,(#1),#1478);
#1480=IFCDOCUMENTREFERENCE('drawings/SOUTH ELEVATION.svg','X',$,$,#1478);
#1481=IFCRELASSOCIATESDOCUMENT('2lPyvI60vBP8Gp9K0_3ASo',$,$,$,(#1449),#1480);
#1496=IFCANNOTATION('3wAJ7_bjf19ejWicggrqCN',$,'EAST ELEVATION',$,'ELEVATION',#1516,$);
#1497=IFCANNOTATION('0njEbb3Yv5xAnD8GNtVQvm',$,'My Storey',$,'SECTION_LEVEL',#1825,#1820);
#1503=IFCCARTESIANPOINTLIST3D(((24999.84765625,0.,0.),(-24999.84765625,0.,0.)));
#1504=IFCINDEXEDPOLYCURVE(#1503,$,$);
#1505=IFCSHAPEREPRESENTATION(#19,'Annotation','Curve3D',(#1504));
#1512=IFCCARTESIANPOINT((5336.21454238892,-1397.72963523865,1983.42788219452));
#1513=IFCDIRECTION((1.,4.37113882867379E-08,-4.37113882867379E-08));
#1514=IFCDIRECTION((-4.37113882867379E-08,1.,0.));
#1515=IFCAXIS2PLACEMENT3D(#1512,#1513,#1514);
#1516=IFCLOCALPLACEMENT($,#1515);
#1522=IFCCARTESIANPOINTLIST3D(((4359.85009765625,0.000476539164083079,0.),(-4359.85009765625,0.000476539164083079,0.)));
#1523=IFCINDEXEDPOLYCURVE(#1522,$,$);
#1524=IFCSHAPEREPRESENTATION(#19,'Annotation','Curve3D',(#1523));
#1548=IFCRELASSIGNSTOPRODUCT('1bGCyRDSj8GfhU9nLzSIss',$,$,$,(#1643,#1756),$,#1449);
#1609=IFCANNOTATION('3vt$yuOLr2M95jIN0jf_PB',$,'MY STOREY PLAN',$,'DRAWING',#1673,#1620);
#1620=IFCPRODUCTDEFINITIONSHAPE($,$,(#1976));
#1621=IFCGROUP('1LAf$rPO14IgiHxxl0KtwK',$,'MY STOREY PLAN',$,'DRAWING');
#1622=IFCRELASSIGNSTOGROUP('0ZUlkIzGP2BQ_ifRKynHvr',$,$,$,(#1924,#1609,#1642,#1943,#1643,#1703,#1720,#1688),$,#1621);
#1623=IFCPROPERTYSET('3SFzP2cR9258xTvyNsfJ3b',$,'EPset_Drawing',$,(#1625,#1626,#1627,#1628,#1629,#1630,#1631,#1632,#1633,#1634,#1635,#1636,#1637));
#1624=IFCRELDEFINESBYPROPERTIES('0NwoSuEsHEJAS47GWOAOgj',$,$,$,(#1609),#1623);
#1625=IFCPROPERTYSINGLEVALUE('TargetView',$,IFCLABEL('PLAN_VIEW'),$);
#1626=IFCPROPERTYSINGLEVALUE('Scale',$,IFCLABEL('1/50'),$);
#1627=IFCPROPERTYSINGLEVALUE('HumanScale',$,IFCLABEL('1:50'),$);
#1628=IFCPROPERTYSINGLEVALUE('HasUnderlay',$,IFCBOOLEAN(.F.),$);
#1629=IFCPROPERTYSINGLEVALUE('HasLinework',$,IFCBOOLEAN(.T.),$);
#1630=IFCPROPERTYSINGLEVALUE('HasAnnotation',$,IFCBOOLEAN(.T.),$);
#1631=IFCPROPERTYSINGLEVALUE('GlobalReferencing',$,IFCBOOLEAN(.T.),$);
#1632=IFCPROPERTYSINGLEVALUE('Stylesheet',$,IFCTEXT('drawings/assets/default.css'),$);
#1633=IFCPROPERTYSINGLEVALUE('Markers',$,IFCTEXT('drawings/assets/markers.svg'),$);
#1634=IFCPROPERTYSINGLEVALUE('Symbols',$,IFCTEXT('drawings/assets/symbols.svg'),$);
#1635=IFCPROPERTYSINGLEVALUE('Patterns',$,IFCTEXT('drawings/assets/patterns.svg'),$);
#1636=IFCPROPERTYSINGLEVALUE('ShadingStyles',$,IFCTEXT('drawings/assets/shading_styles.json'),$);
#1637=IFCPROPERTYSINGLEVALUE('CurrentShadingStyle',$,IFCLABEL('Blender Default'),$);
#1638=IFCDOCUMENTINFORMATION('X','MY STOREY PLAN',$,$,$,$,'DRAWING',$,$,$,$,$,$,$,$,$,$);
#1639=IFCRELASSOCIATESDOCUMENT('03z5t0Y9v6TQYxFs4ujGB7',$,$,$,(#1),#1638);
#1640=IFCDOCUMENTREFERENCE('drawings/MY STOREY PLAN.svg','X',$,$,#1638);
#1641=IFCRELASSOCIATESDOCUMENT('0iI2RVxzH2bRZ2Bv4f94MO',$,$,$,(#1609),#1640);
#1642=IFCANNOTATION('0tOzN_USzFNhVrF7HJaxZl',$,'EAST ELEVATION',$,'ELEVATION',#2008,$);
#1643=IFCANNOTATION('1bcathl7HCIx9se0UNo5fQ',$,'SOUTH ELEVATION',$,'ELEVATION',#1653,$);
#1649=IFCCARTESIANPOINT((0.,-6259.95254516602,2000.));
#1650=IFCDIRECTION((0.,-1.,7.54979012640433E-08));
#1651=IFCDIRECTION((1.,0.,0.));
#1652=IFCAXIS2PLACEMENT3D(#1649,#1650,#1651);
#1653=IFCLOCALPLACEMENT($,#1652);
#1669=IFCCARTESIANPOINT((0.,-1000.,6185.89019775391));
#1670=IFCDIRECTION((0.,0.,1.));
#1671=IFCDIRECTION((1.,0.,0.));
#1672=IFCAXIS2PLACEMENT3D(#1669,#1670,#1671);
#1673=IFCLOCALPLACEMENT($,#1672);
#1688=IFCANNOTATION('34fBHutNz1tBpGroPpEf6r',$,'DIMENSION',$,'DIMENSION',#1755,#1698);
#1696=IFCGEOMETRICCURVESET((#1750));
#1697=IFCSHAPEREPRESENTATION(#29,'Annotation','GeometricSet',(#1696));
#1698=IFCPRODUCTDEFINITIONSHAPE($,$,(#1697));
#1703=IFCANNOTATION('0WCW5Y5Ef6MOZvsRCqQIZs',$,'DIMENSION',$,'DIMENSION',#1737,#1713);
#1711=IFCGEOMETRICCURVESET((#1744));
#1712=IFCSHAPEREPRESENTATION(#29,'Annotation','GeometricSet',(#1711));
#1713=IFCPRODUCTDEFINITIONSHAPE($,$,(#1712));
#1720=IFCANNOTATION('3lUC6Fh9P0L9rYRVS4CQ3b',$,'DIMENSION',$,'DIMENSION',#1721,#1726);
#1721=IFCLOCALPLACEMENT($,#1722);
#1722=IFCAXIS2PLACEMENT3D(#1723,#1724,#1725);
#1723=IFCCARTESIANPOINT((0.,0.,5185.89019775391));
#1724=IFCDIRECTION((0.,0.,1.));
#1725=IFCDIRECTION((1.,0.,0.));
#1726=IFCPRODUCTDEFINITIONSHAPE($,$,(#1727));
#1727=IFCSHAPEREPRESENTATION(#29,'Annotation','GeometricSet',(#1728));
#1728=IFCGEOMETRICCURVESET((#1729));
#1729=IFCINDEXEDPOLYCURVE(#1730,$,$);
#1730=IFCCARTESIANPOINTLIST2D(((-1993.87683105469,2989.2060546875),(1206.12255859375,2989.2060546875)));
#1733=IFCCARTESIANPOINT((-338.555902242661,-8776.41105651855,5185.89019775391));
#1734=IFCDIRECTION((0.,0.,1.));
#1735=IFCDIRECTION((1.,0.,0.));
#1736=IFCAXIS2PLACEMENT3D(#1733,#1734,#1735);
#1737=IFCLOCALPLACEMENT($,#1736);
#1743=IFCCARTESIANPOINTLIST2D(((-1999.99987792969,2989.20556640625),(3000.,2989.20556640625)));
#1744=IFCINDEXEDPOLYCURVE(#1743,$,$);
#1749=IFCCARTESIANPOINTLIST2D(((-3619.93994140625,-3999.99926757812),(-3619.94287109375,0.),(-3619.94287109375,3199.99975585938)));
#1750=IFCINDEXEDPOLYCURVE(#1749,$,$);
#1751=IFCCARTESIANPOINT((271.27879858017,-940.433204174042,5185.89019775391));
#1752=IFCDIRECTION((0.,0.,1.));
#1753=IFCDIRECTION((1.,0.,0.));
#1754=IFCAXIS2PLACEMENT3D(#1751,#1752,#1753);
#1755=IFCLOCALPLACEMENT($,#1754);
#1756=IFCANNOTATION('2ZJJS7DTv4oRJIfSCtNnxi',$,'SOUTH ELEVATION',$,'ELEVATION',#1761,$);
#1757=IFCCARTESIANPOINT((0.,-6259.95254516602,2000.));
#1758=IFCDIRECTION((0.,-1.,7.54979012640433E-08));
#1759=IFCDIRECTION((1.,0.,0.));
#1760=IFCAXIS2PLACEMENT3D(#1757,#1758,#1759);
#1761=IFCLOCALPLACEMENT($,#1760);
#1762=IFCCARTESIANPOINTLIST2D(((-4999.99853515625,-432.760375976562),(-999.999816894531,-432.760375976562),(2200.,-432.760375976562)));
#1763=IFCINDEXEDPOLYCURVE(#1762,$,$);
#1764=IFCCARTESIANPOINTLIST2D(((2817.25024414062,0.),(2817.25024414062,2499.99975585938)));
#1765=IFCINDEXEDPOLYCURVE(#1764,$,$);
#1766=IFCCARTESIANPOINTLIST3D(((4359.85009765625,-1999.99938964844,0.),(-4359.85009765625,-1999.99938964844,0.)));
#1767=IFCINDEXEDPOLYCURVE(#1766,$,$);
#1768=IFCSHAPEREPRESENTATION(#19,'Annotation','Curve3D',(#1767));
#1780=IFCANNOTATION('30rLVNqgT9MRBEo27brIIy',$,'DIMENSION',$,'DIMENSION',#1785,#1790);
#1781=IFCCARTESIANPOINT((0.,-5311.95259094238,0.000476837158203125));
#1782=IFCDIRECTION((0.,-1.,3.42285453314162E-08));
#1783=IFCDIRECTION((1.,0.,0.));
#1784=IFCAXIS2PLACEMENT3D(#1781,#1782,#1783);
#1785=IFCLOCALPLACEMENT($,#1784);
#1788=IFCGEOMETRICCURVESET((#1794));
#1789=IFCSHAPEREPRESENTATION(#19,'Annotation','GeometricSet',(#1788));
#1790=IFCPRODUCTDEFINITIONSHAPE($,$,(#1789));
#1793=IFCCARTESIANPOINTLIST2D(((-3017.23388671875,0.),(-3017.23388671875,3269.71826171875)));
#1794=IFCINDEXEDPOLYCURVE(#1793,$,$);
#1795=IFCANNOTATION('1mhqrP0pjArw$CM52Ox4jW',$,'DIMENSION',$,'DIMENSION',#1800,#1805);
#1796=IFCCARTESIANPOINT((0.,-5311.95259094238,0.000476837158203125));
#1797=IFCDIRECTION((0.,-1.,3.42285453314162E-08));
#1798=IFCDIRECTION((1.,0.,0.));
#1799=IFCAXIS2PLACEMENT3D(#1796,#1797,#1798);
#1800=IFCLOCALPLACEMENT($,#1799);
#1803=IFCGEOMETRICCURVESET((#1811));
#1804=IFCSHAPEREPRESENTATION(#19,'Annotation','GeometricSet',(#1803));
#1805=IFCPRODUCTDEFINITIONSHAPE($,$,(#1804));
#1810=IFCCARTESIANPOINTLIST2D(((-2395.0947265625,3804.76684570312),(2604.90209960938,3804.76684570312)));
#1811=IFCINDEXEDPOLYCURVE(#1810,$,$);
#1812=IFCCARTESIANPOINT((-305.168896913528,-6311.95259094238,2044.29864883423));
#1813=IFCDIRECTION((0.,-1.,7.54979012640433E-08));
#1814=IFCDIRECTION((1.,0.,0.));
#1815=IFCAXIS2PLACEMENT3D(#1812,#1813,#1814);
#1816=IFCLOCALPLACEMENT($,#1815);
#1817=IFCCARTESIANPOINTLIST3D(((4359.85009765625,-2044.29809570312,0.),(-4359.85009765625,-2044.29809570312,0.)));
#1818=IFCINDEXEDPOLYCURVE(#1817,$,$);
#1819=IFCSHAPEREPRESENTATION(#19,'Annotation','Curve3D',(#1818));
#1820=IFCPRODUCTDEFINITIONSHAPE($,$,(#1819));
#1821=IFCCARTESIANPOINT((-305.168896913528,-6259.95254516602,2044.29864883423));
#1822=IFCDIRECTION((0.,-1.,3.42285453314162E-08));
#1823=IFCDIRECTION((1.,0.,0.));
#1824=IFCAXIS2PLACEMENT3D(#1821,#1822,#1823);
#1825=IFCLOCALPLACEMENT($,#1824);
#1826=IFCCARTESIANPOINT((-3409.96156685083,-4360.00061035156,-10000.));
#1827=IFCAXIS2PLACEMENT3D(#1826,$,$);
#1828=IFCBLOCK(#1827,6819.92313370167,8720.00122070312,10000.);
#1829=IFCCSGSOLID(#1828);
#1830=IFCSHAPEREPRESENTATION(#15,'Body','CSG',(#1829));
#1831=IFCCARTESIANPOINTLIST2D(((2817.25,0.),(2817.25,3270.)));
#1832=IFCINDEXEDPOLYCURVE(#1831,$,$);
#1833=IFCANNOTATION('16c9ostzP1cuP7N3kJZP_8',$,'TEXT',$,'TEXT',#1913,#1846);
#1839=IFCCARTESIANPOINT((0.,0.,0.));
#1840=IFCDIRECTION((0.,0.,1.));
#1841=IFCDIRECTION((1.,0.,0.));
#1842=IFCAXIS2PLACEMENT3D(#1839,#1840,#1841);
#1843=IFCPLANAREXTENT(1000.,1000.);
#1844=IFCTEXTLITERALWITHEXTENT('abri de jardin existant',#1842,.RIGHT.,#1843,'bottom-left');
#1845=IFCSHAPEREPRESENTATION(#19,'Annotation','Annotation3D',(#1844));
#1846=IFCPRODUCTDEFINITIONSHAPE($,$,(#1845));
#1847=IFCPROPERTYSET('0FAmlCFaH2lR6gjDm4FFTd',$,'EPset_Annotation',$,(#1849,#1850,#1851));
#1848=IFCRELDEFINESBYPROPERTIES('1RPluFqj9EaOlPHYL0ctDq',$,$,$,(#1833),#1847);
#1849=IFCPROPERTYSINGLEVALUE('Newline_At',$,IFCINTEGER(0),$);
#1850=IFCPROPERTYSINGLEVALUE('Reverse_List',$,IFCBOOLEAN(.F.),$);
#1851=IFCPROPERTYSINGLEVALUE('List_Separator',$,IFCTEXT(', '),$);
#1890=IFCANNOTATION('2941DemYf3jAG4MCM3HjBP',$,'TEXT',$,'TEXT',#1918,#1903);
#1896=IFCCARTESIANPOINT((0.,0.,0.));
#1897=IFCDIRECTION((0.,0.,1.));
#1898=IFCDIRECTION((1.,0.,0.));
#1899=IFCAXIS2PLACEMENT3D(#1896,#1897,#1898);
#1900=IFCPLANAREXTENT(1000.,1000.);
#1901=IFCTEXTLITERALWITHEXTENT('nouvel abri de voiture',#1899,.RIGHT.,#1900,'bottom-left');
#1902=IFCSHAPEREPRESENTATION(#19,'Annotation','Annotation3D',(#1901));
#1903=IFCPRODUCTDEFINITIONSHAPE($,$,(#1902));
#1904=IFCPROPERTYSET('0HYGTrehP3jfsrh9ge7Udy',$,'EPset_Annotation',$,(#1906,#1907,#1908));
#1905=IFCRELDEFINESBYPROPERTIES('1L688jSXfBKB83m_quXQKl',$,$,$,(#1890),#1904);
#1906=IFCPROPERTYSINGLEVALUE('Newline_At',$,IFCINTEGER(0),$);
#1907=IFCPROPERTYSINGLEVALUE('Reverse_List',$,IFCBOOLEAN(.F.),$);
#1908=IFCPROPERTYSINGLEVALUE('List_Separator',$,IFCTEXT(', '),$);
#1909=IFCCARTESIANPOINT((4388.21458816528,38.404107093811,1350.53646564484));
#1910=IFCDIRECTION((1.,4.37113882867379E-08,-4.37113882867379E-08));
#1911=IFCDIRECTION((-4.37113882867379E-08,1.,0.));
#1912=IFCAXIS2PLACEMENT3D(#1909,#1910,#1911);
#1913=IFCLOCALPLACEMENT($,#1912);
#1914=IFCCARTESIANPOINT((4388.21458816528,-3539.55793380737,1363.33775520325));
#1915=IFCDIRECTION((1.,4.37113882867379E-08,-4.37113882867379E-08));
#1916=IFCDIRECTION((-4.37113882867379E-08,1.,0.));
#1917=IFCAXIS2PLACEMENT3D(#1914,#1915,#1916);
#1918=IFCLOCALPLACEMENT($,#1917);
#1919=IFCCARTESIANPOINT((-4724.76863861084,-3353.06161449802,-80399.9938964844));
#1920=IFCAXIS2PLACEMENT3D(#1919,$,$);
#1921=IFCBLOCK(#1920,9449.53727722168,6706.12322899603,80399.9938964844);
#1922=IFCCSGSOLID(#1921);
#1923=IFCSHAPEREPRESENTATION(#15,'Body','CSG',(#1922));
#1924=IFCANNOTATION('0UlQ7Tjfn1EwLTw4bihaPN',$,'TEXT',$,'TEXT',#1966,#1937);
#1930=IFCCARTESIANPOINT((0.,0.,0.));
#1931=IFCDIRECTION((0.,0.,1.));
#1932=IFCDIRECTION((1.,0.,0.));
#1933=IFCAXIS2PLACEMENT3D(#1930,#1931,#1932);
#1934=IFCPLANAREXTENT(1000.,1000.);
#1935=IFCTEXTLITERALWITHEXTENT('nouvel abri de voiture',#1933,.RIGHT.,#1934,'bottom-left');
#1936=IFCSHAPEREPRESENTATION(#29,'Annotation','Annotation2D',(#1935));
#1937=IFCPRODUCTDEFINITIONSHAPE($,$,(#1936));
#1938=IFCPROPERTYSET('3xvIREJfzCZQDFDUQ5H0UN',$,'EPset_Annotation',$,(#1940,#1941,#1942));
#1939=IFCRELDEFINESBYPROPERTIES('3z6_1Y7vfFvA1V$ituWXKo',$,$,$,(#1924),#1938);
#1940=IFCPROPERTYSINGLEVALUE('Newline_At',$,IFCINTEGER(0),$);
#1941=IFCPROPERTYSINGLEVALUE('Reverse_List',$,IFCBOOLEAN(.F.),$);
#1942=IFCPROPERTYSINGLEVALUE('List_Separator',$,IFCTEXT(', '),$);
#1943=IFCANNOTATION('2bf7L4aTf78eMrvfh5wn_S',$,'TEXT',$,'TEXT',#1971,#1956);
#1949=IFCCARTESIANPOINT((0.,0.,0.));
#1950=IFCDIRECTION((0.,0.,1.));
#1951=IFCDIRECTION((1.,0.,0.));
#1952=IFCAXIS2PLACEMENT3D(#1949,#1950,#1951);
#1953=IFCPLANAREXTENT(1000.,1000.);
#1954=IFCTEXTLITERALWITHEXTENT('abri de jardin existant',#1952,.RIGHT.,#1953,'bottom-left');
#1955=IFCSHAPEREPRESENTATION(#29,'Annotation','Annotation2D',(#1954));
#1956=IFCPRODUCTDEFINITIONSHAPE($,$,(#1955));
#1957=IFCPROPERTYSET('0fsRNDoJX88QoZXiCuaKZw',$,'EPset_Annotation',$,(#1959,#1960,#1961));
#1958=IFCRELDEFINESBYPROPERTIES('03adKCpW9FPwg_xb4UXml8',$,$,$,(#1943),#1957);
#1959=IFCPROPERTYSINGLEVALUE('Newline_At',$,IFCINTEGER(0),$);
#1960=IFCPROPERTYSINGLEVALUE('Reverse_List',$,IFCBOOLEAN(.F.),$);
#1961=IFCPROPERTYSINGLEVALUE('List_Separator',$,IFCTEXT(', '),$);
#1962=IFCCARTESIANPOINT((-513.621211051941,-2973.21605682373,5185.89019775391));
#1963=IFCDIRECTION((0.,0.,1.));
#1964=IFCDIRECTION((1.,0.,0.));
#1965=IFCAXIS2PLACEMENT3D(#1962,#1963,#1964);
#1966=IFCLOCALPLACEMENT($,#1965);
#1967=IFCCARTESIANPOINT((-1056.17880821228,600.430488586426,5185.89019775391));
#1968=IFCDIRECTION((0.,0.,1.));
#1969=IFCDIRECTION((1.,0.,0.));
#1970=IFCAXIS2PLACEMENT3D(#1967,#1968,#1969);
#1971=IFCLOCALPLACEMENT($,#1970);
#1972=IFCCARTESIANPOINT((-4238.09535919674,-5340.00015258789,-10000.));
#1973=IFCAXIS2PLACEMENT3D(#1972,$,$);
#1974=IFCBLOCK(#1973,8476.19071839348,10680.0003051758,10000.);
#1975=IFCCSGSOLID(#1974);
#1976=IFCSHAPEREPRESENTATION(#15,'Body','CSG',(#1975));
#1977=IFCCARTESIANPOINT((3194.63419914246,-582.889318466187,-984.268188476562));
#1978=IFCDIRECTION((0.,0.0871557146310806,0.99619472026825));
#1979=IFCDIRECTION((1.,0.,0.));
#1980=IFCAXIS2PLACEMENT3D(#1977,#1978,#1979);
#1981=IFCLOCALPLACEMENT(#66,#1980);
#1988=IFCCARTESIANPOINT((-5188.51123046875,-3773.53637695312,3753.9658203125));
#1989=IFCDIRECTION((0.,0.,1.));
#1990=IFCDIRECTION((1.,0.,0.));
#1991=IFCAXIS2PLACEMENT3D(#1988,#1989,#1990);
#1995=IFCCARTESIANPOINTLIST2D(((-401.220642089844,3199.99877929688),(-401.220642089844,-962.869018554688),(4598.77880859375,-962.869018554688),(4598.77880859375,3199.99877929688),(-401.220642089844,3199.99877929688)));
#1996=IFCINDEXEDPOLYCURVE(#1995,$,$);
#1997=IFCARBITRARYCLOSEDPROFILEDEF(.AREA.,$,#1996);
#2002=IFCCARTESIANPOINTLIST2D(((4907.65234375,-1983.42736816406),(-4724.61572265625,-1983.42736816406)));
#2003=IFCINDEXEDPOLYCURVE(#2002,$,$);
#2004=IFCCARTESIANPOINT((3695.12033462524,-1440.69015979767,1983.42788219452));
#2005=IFCDIRECTION((1.,4.37113882867379E-08,-4.37113882867379E-08));
#2006=IFCDIRECTION((-4.37113882867379E-08,1.,0.));
#2007=IFCAXIS2PLACEMENT3D(#2004,#2005,#2006);
#2008=IFCLOCALPLACEMENT($,#2007);
ENDSEC;
END-ISO-10303-21;
